<svg width="250" height="176" viewBox="0 0 250 176" fill="none" xmlns="http://www.w3.org/2000/svg">
<g filter="url(#filter0_d_2013_134)">
<rect x="40" y="10" width="170" height="96" rx="16" fill="#EBE6FA"/>
</g>
<g clip-path="url(#clip0_2013_134)">
<path fill-rule="evenodd" clip-rule="evenodd" d="M137.9 67.0249C131.915 71.5732 123.239 73.9999 115.769 73.9999C105.296 73.9999 95.8671 70.0063 88.7338 63.3641C88.1733 62.8417 88.6755 62.1299 89.348 62.5367C97.0462 67.1543 106.565 69.9323 116.397 69.9323C123.028 69.9323 130.323 68.5179 137.03 65.5827C138.044 65.139 138.891 66.2668 137.9 67.0249Z" fill="#FF9900"/>
<path fill-rule="evenodd" clip-rule="evenodd" d="M140.387 64.0898C139.625 63.0821 135.33 63.6137 133.402 63.8494C132.814 63.9234 132.725 63.3964 133.254 63.0174C136.675 60.5352 142.288 61.2517 142.943 62.0837C143.597 62.9203 142.772 68.7213 139.558 71.49C139.064 71.9153 138.594 71.6888 138.813 71.1249C139.535 69.2667 141.154 65.1021 140.387 64.0898Z" fill="#FF9900"/>
<path fill-rule="evenodd" clip-rule="evenodd" d="M133.538 45.4944V43.0816C133.538 42.7164 133.807 42.4714 134.13 42.4714H144.608C144.944 42.4714 145.213 42.721 145.213 43.0816V45.1477C145.208 45.4944 144.926 45.9474 144.424 46.6638L138.994 54.6557C141.012 54.6049 143.141 54.9146 144.971 55.9777C145.383 56.2181 145.495 56.5694 145.527 56.916V59.4906C145.527 59.8419 145.15 60.2533 144.755 60.0407C141.532 58.2981 137.25 58.1086 133.686 60.0592C133.323 60.2626 132.941 59.8558 132.941 59.5045V57.0593C132.941 56.6664 132.946 55.9962 133.327 55.3999L139.617 46.0999H134.143C133.807 46.0999 133.538 45.8549 133.538 45.4944Z" fill="black"/>
<path fill-rule="evenodd" clip-rule="evenodd" d="M95.3138 60.5492H92.126C91.8212 60.5261 91.5791 60.2904 91.5566 59.99V43.1233C91.5566 42.7859 91.8301 42.5178 92.1709 42.5178H95.1435C95.4528 42.5316 95.6994 42.7766 95.7218 43.0817V45.2865H95.7801C96.5558 43.1557 98.0129 42.1619 99.9767 42.1619C101.972 42.1619 103.218 43.1557 104.115 45.2865C104.886 43.1557 106.639 42.1619 108.518 42.1619C109.854 42.1619 111.316 42.7304 112.208 44.0062C113.217 45.4252 113.01 47.4867 113.01 49.294L113.006 59.9391C113.006 60.2765 112.732 60.5492 112.392 60.5492H109.208C108.89 60.5261 108.634 60.2627 108.634 59.9391V50.9996C108.634 50.2878 108.697 48.5129 108.545 47.838C108.307 46.7056 107.594 46.3866 106.671 46.3866C105.899 46.3866 105.092 46.9182 104.765 47.7687C104.438 48.6192 104.469 50.0428 104.469 50.9996V59.9391C104.469 60.2765 104.196 60.5492 103.855 60.5492H100.672C100.349 60.5261 100.098 60.2627 100.098 59.9391L100.093 50.9996C100.093 49.1184 100.394 46.3496 98.1295 46.3496C95.8384 46.3496 95.9281 49.049 95.9281 50.9996V59.9391C95.9281 60.2765 95.6546 60.5492 95.3138 60.5492" fill="black"/>
<path fill-rule="evenodd" clip-rule="evenodd" d="M154.232 42.1619C158.962 42.1619 161.522 46.3496 161.522 51.6745C161.522 56.8191 158.693 60.9005 154.232 60.9005C149.587 60.9005 147.059 56.7128 147.059 51.4942C147.059 46.2433 149.619 42.1619 154.232 42.1619ZM154.259 45.6055C151.91 45.6055 151.762 48.9058 151.762 50.9627C151.762 53.0242 151.73 57.4246 154.232 57.4246C156.703 57.4246 156.819 53.8747 156.819 51.7115C156.819 50.2878 156.761 48.5868 156.344 47.2371C155.985 46.0631 155.272 45.6055 154.259 45.6055Z" fill="black"/>
<path fill-rule="evenodd" clip-rule="evenodd" d="M167.657 60.5492H164.483C164.164 60.5261 163.909 60.2627 163.909 59.9391L163.904 43.0678C163.931 42.7581 164.196 42.5178 164.519 42.5178H167.473C167.751 42.5316 167.98 42.7258 168.043 42.9893V45.5685H168.101C168.993 43.262 170.244 42.1619 172.445 42.1619C173.876 42.1619 175.27 42.6934 176.167 44.1494C177.001 45.4991 177.001 47.7687 177.001 49.4003V60.0177C176.965 60.3135 176.7 60.5492 176.386 60.5492H173.19C172.898 60.5261 172.656 60.3043 172.625 60.0177V50.8564C172.625 49.0121 172.831 46.3127 170.63 46.3127C169.854 46.3127 169.141 46.8488 168.787 47.6624C168.338 48.6931 168.28 49.7193 168.28 50.8564V59.9391C168.276 60.2765 167.998 60.5492 167.657 60.5492" fill="black"/>
<path fill-rule="evenodd" clip-rule="evenodd" d="M125.184 52.4926C125.184 53.7729 125.215 54.8407 124.588 55.9777C124.081 56.9022 123.274 57.4707 122.382 57.4707C121.158 57.4707 120.44 56.5093 120.44 55.0903C120.44 52.2892 122.875 51.7807 125.184 51.7807V52.4926ZM128.399 60.5029C128.188 60.6971 127.883 60.7109 127.645 60.5815C126.587 59.6756 126.395 59.2549 125.816 58.3906C124.068 60.2302 122.826 60.7803 120.561 60.7803C117.876 60.7803 115.791 59.0747 115.791 55.6588C115.791 52.9918 117.19 51.1752 119.19 50.2877C120.92 49.5019 123.337 49.3633 125.184 49.146V48.7208C125.184 47.9396 125.242 47.0152 124.794 46.3403C124.408 45.7348 123.664 45.4852 123.005 45.4852C121.79 45.4852 120.709 46.1277 120.445 47.4589C120.391 47.7547 120.18 48.0459 119.889 48.0598L116.8 47.7177C116.54 47.6577 116.248 47.4404 116.325 47.029C117.033 43.1648 120.423 42 123.453 42C125.005 42 127.031 42.4252 128.255 43.6363C129.807 45.1293 129.659 47.1215 129.659 49.2893V54.4108C129.659 55.95 130.277 56.6249 130.86 57.4569C131.062 57.7527 131.107 58.1086 130.847 58.3305C130.197 58.8898 129.04 59.9298 128.403 60.5122L128.399 60.5029" fill="black"/>
<path fill-rule="evenodd" clip-rule="evenodd" d="M83.393 52.4928C83.393 53.7732 83.4244 54.8409 82.7967 55.978C82.29 56.9024 81.4875 57.471 80.5908 57.471C79.3668 57.471 78.6539 56.5095 78.6539 55.0905C78.6539 52.2894 81.0884 51.781 83.393 51.781V52.4928ZM86.6077 60.5032C86.3969 60.6973 86.0921 60.7112 85.8544 60.5818C84.7963 59.6758 84.608 59.2552 84.0252 58.3908C82.2766 60.2305 81.0391 60.7805 78.7705 60.7805C76.0893 60.7805 74 59.0749 74 55.6591C74 52.992 75.4033 51.1755 77.3985 50.288C79.1291 49.5022 81.5458 49.3635 83.393 49.1463V48.721C83.393 47.9399 83.4513 47.0154 83.0074 46.3406C82.6173 45.735 81.8731 45.4854 81.2185 45.4854C80.0034 45.4854 78.9184 46.1279 78.6539 47.4591C78.6001 47.755 78.3894 48.0462 78.1024 48.06L75.0088 47.718C74.7487 47.6579 74.4618 47.4407 74.5335 47.0293C75.2464 43.1651 78.6315 42.0002 81.6623 42.0002C83.2136 42.0002 85.2402 42.4255 86.4642 43.6365C88.0155 45.1295 87.8675 47.1217 87.8675 49.2896V54.411C87.8675 55.9503 88.4863 56.6251 89.0691 57.4571C89.2754 57.7529 89.3202 58.1089 89.0602 58.3307C88.41 58.89 87.2533 59.93 86.6166 60.5124L86.6077 60.5032" fill="black"/>
</g>
<defs>
<filter id="filter0_d_2013_134" x="0" y="0" width="250" height="176" filterUnits="userSpaceOnUse" color-interpolation-filters="sRGB">
<feFlood flood-opacity="0" result="BackgroundImageFix"/>
<feColorMatrix in="SourceAlpha" type="matrix" values="0 0 0 0 0 0 0 0 0 0 0 0 0 0 0 0 0 0 127 0" result="hardAlpha"/>
<feOffset dy="30"/>
<feGaussianBlur stdDeviation="20"/>
<feColorMatrix type="matrix" values="0 0 0 0 0.831373 0 0 0 0 0.85098 0 0 0 0 0.909804 0 0 0 0.2 0"/>
<feBlend mode="normal" in2="BackgroundImageFix" result="effect1_dropShadow_2013_134"/>
<feBlend mode="normal" in="SourceGraphic" in2="effect1_dropShadow_2013_134" result="shape"/>
</filter>
<clipPath id="clip0_2013_134">
<rect width="103" height="32" fill="white" transform="translate(74 42)"/>
</clipPath>
</defs>
</svg>
