<svg width="250" height="176" viewBox="0 0 250 176" fill="none" xmlns="http://www.w3.org/2000/svg">
<g filter="url(#filter0_d_2013_76)">
<rect x="40" y="10" width="170" height="96" rx="16" fill="#EBE6FA"/>
</g>
<path fill-rule="evenodd" clip-rule="evenodd" d="M141.2 51.3099L139.2 47.9299L135.65 49.6199L133.65 46.2299L130.1 47.9299L128.11 44.5299L124.56 46.2299L122.56 42.8399L119.01 44.5399L117.02 41.1399L113.46 42.8399L105.93 67.3599L115.08 70.1599C115.424 69.0547 116.153 68.1093 117.134 67.4944C118.115 66.8796 119.283 66.6359 120.428 66.8074C121.573 66.9789 122.619 67.5542 123.377 68.4295C124.134 69.3048 124.554 70.4222 124.56 71.5799V71.6799C124.58 72.1199 124.53 72.5599 124.4 72.9999L133.7 75.8499L141.2 51.3099Z" fill="#D61920"/>
<path fill-rule="evenodd" clip-rule="evenodd" d="M113.781 65.34C113.55 65.3017 113.34 65.1818 113.189 65.002C113.039 64.8222 112.958 64.5944 112.961 64.36V52.36C112.96 52.2283 112.985 52.0976 113.034 51.9757C113.084 51.8538 113.158 51.743 113.251 51.6499C113.344 51.5568 113.455 51.4832 113.577 51.4334C113.699 51.3836 113.829 51.3586 113.961 51.36H122.631C123.142 51.3587 123.648 51.458 124.12 51.6523C124.593 51.8465 125.022 52.132 125.385 52.4923C125.747 52.8525 126.034 53.2806 126.231 53.7521C126.428 54.2236 126.53 54.7291 126.531 55.24V64.36C126.531 64.5073 126.498 64.6527 126.435 64.7858C126.372 64.9189 126.28 65.0365 126.167 65.1301C126.053 65.2237 125.92 65.2911 125.777 65.3274C125.635 65.3637 125.486 65.368 125.341 65.34C125.112 65.2996 124.904 65.1788 124.756 64.9992C124.607 64.8196 124.527 64.593 124.531 64.36V55.25C124.531 54.7461 124.331 54.2628 123.975 53.9065C123.618 53.5502 123.135 53.35 122.631 53.35H120.741V64.35C120.742 64.484 120.716 64.6167 120.664 64.7404C120.613 64.8641 120.537 64.9762 120.441 65.07C120.327 65.1829 120.188 65.2664 120.034 65.3135C119.881 65.3605 119.719 65.3696 119.561 65.34C119.33 65.3017 119.12 65.1818 118.969 65.002C118.819 64.8222 118.738 64.5944 118.741 64.36V53.35H114.961V64.35C114.962 64.4971 114.93 64.6426 114.869 64.7761C114.807 64.9096 114.716 65.0279 114.604 65.1224C114.491 65.217 114.359 65.2855 114.217 65.3231C114.074 65.3607 113.926 65.3665 113.781 65.34ZM128.201 70.57C127.968 70.5315 127.757 70.4101 127.606 70.2282C127.455 70.0463 127.375 69.8161 127.381 69.58C127.382 69.3176 127.486 69.0662 127.671 68.88C127.856 68.6916 128.107 68.5837 128.371 68.58C129.221 68.58 129.951 68.04 130.191 67.23L131.221 63.8L127.851 52.53C127.811 52.4039 127.796 52.2712 127.808 52.1394C127.819 52.0076 127.857 51.8794 127.918 51.7622C127.979 51.645 128.063 51.5411 128.165 51.4566C128.267 51.3722 128.385 51.3087 128.511 51.27C128.763 51.2002 129.032 51.2297 129.263 51.3525C129.493 51.4753 129.668 51.682 129.751 51.93L132.251 60.33L134.791 51.93C134.911 51.47 135.421 51.16 135.941 51.26L136.011 51.27C136.551 51.44 136.851 52.01 136.691 52.54L133.221 64.1L132.121 67.8C131.874 68.5962 131.385 69.2955 130.721 69.8C130.046 70.3063 129.225 70.58 128.381 70.58C128.321 70.5823 128.261 70.5789 128.201 70.57Z" fill="#FEFEFE"/>
<path fill-rule="evenodd" clip-rule="evenodd" d="M67.0801 63.1499H69.0401C69.5626 63.1499 70.0637 62.9423 70.4331 62.5729C70.8025 62.2034 71.0101 61.7023 71.0101 61.1799V55.4099C71.0114 55.1512 70.9618 54.8947 70.864 54.6552C70.7662 54.4157 70.6222 54.1978 70.4402 54.0139C70.2582 53.8301 70.0417 53.6839 69.8032 53.5836C69.5647 53.4834 69.3088 53.4312 69.0501 53.4299H67.0801V63.1299V63.1499ZM65.8501 65.2099C65.61 65.1693 65.3923 65.0442 65.2364 64.8571C65.0805 64.67 64.9967 64.4334 65.0001 64.1899V46.2699C64.9983 46.1328 65.024 45.9967 65.0755 45.8696C65.127 45.7425 65.2034 45.627 65.3001 45.5299C65.4171 45.4083 65.5623 45.3174 65.7227 45.2651C65.8831 45.2128 66.0539 45.2007 66.2201 45.2299C66.7201 45.3299 67.0801 45.7499 67.0801 46.2599V51.3599H69.0401C69.5715 51.3586 70.0979 51.4621 70.5892 51.6645C71.0805 51.867 71.5271 52.1643 71.9033 52.5396C72.2795 52.9149 72.578 53.3607 72.7816 53.8515C72.9853 54.3423 73.0901 54.8685 73.0901 55.3999V61.1699C73.0875 62.2405 72.661 63.2666 71.9039 64.0237C71.1468 64.7807 70.1208 65.2072 69.0501 65.2099H66.0401C65.9733 65.2138 65.9062 65.2105 65.8401 65.1999L65.8501 65.2099Z" fill="#333545"/>
<path fill-rule="evenodd" clip-rule="evenodd" d="M80.1401 53.3499C80.0278 53.3303 79.9141 53.3203 79.8001 53.3199C79.5407 53.3172 79.2833 53.3664 79.0431 53.4644C78.8028 53.5625 78.5846 53.7075 78.4011 53.891C78.2177 54.0744 78.0727 54.2927 77.9746 54.5329C77.8766 54.7731 77.8274 55.0305 77.8301 55.2899V61.2999C77.8288 61.559 77.8788 61.8158 77.9774 62.0554C78.0759 62.295 78.2209 62.5127 78.4041 62.6959C78.5873 62.8791 78.805 63.0241 79.0446 63.1227C79.2843 63.2212 79.541 63.2712 79.8001 63.2699C80.3226 63.2699 80.8237 63.0624 81.1931 62.6929C81.5625 62.3235 81.7701 61.8224 81.7701 61.2999V55.2999C81.7701 54.3299 81.0801 53.5199 80.1401 53.3499ZM79.0901 65.2999C78.1525 65.135 77.3033 64.6442 76.6922 63.9142C76.0811 63.1842 75.7475 62.2619 75.7501 61.3099V55.2999C75.7483 54.768 75.8527 54.2411 76.057 53.75C76.2613 53.259 76.5616 52.8136 76.9401 52.4399C77.3156 52.0645 77.7615 51.767 78.2524 51.5645C78.7432 51.362 79.2692 51.2585 79.8001 51.2599C80.8716 51.2599 81.8992 51.6856 82.6568 52.4432C83.4145 53.2009 83.8401 54.2284 83.8401 55.2999V61.3099C83.8401 62.3899 83.4201 63.4099 82.6501 64.1799C82.2761 64.5546 81.8319 64.8517 81.3428 65.0541C80.8537 65.2566 80.3294 65.3606 79.8001 65.3599C79.5621 65.3609 79.3245 65.3408 79.0901 65.2999ZM90.8901 53.3599C90.7778 53.3402 90.6641 53.3302 90.5501 53.3299C90.2907 53.3272 90.0333 53.3764 89.7931 53.4744C89.5528 53.5725 89.3346 53.7175 89.1511 53.901C88.9677 54.0844 88.8227 54.3027 88.7246 54.5429C88.6266 54.7831 88.5774 55.0405 88.5801 55.2999V61.3099C88.5788 61.569 88.6288 61.8258 88.7274 62.0654C88.8259 62.305 88.9709 62.5227 89.1541 62.7059C89.3373 62.8891 89.555 63.0341 89.7946 63.1327C90.0343 63.2312 90.291 63.2812 90.5501 63.2799C90.8092 63.2812 91.0659 63.2312 91.3056 63.1327C91.5452 63.0341 91.7629 62.8891 91.9461 62.7059C92.1292 62.5227 92.2743 62.305 92.3728 62.0654C92.4714 61.8258 92.5214 61.569 92.5201 61.3099V55.2999C92.5201 54.3399 91.8301 53.5299 90.8901 53.3599ZM89.8401 65.2999C88.9043 65.1329 88.0574 64.6412 87.4484 63.9114C86.8393 63.1816 86.5071 62.2605 86.5101 61.3099V55.2999C86.5117 54.7106 86.6418 54.1287 86.8915 53.5948C87.1412 53.061 87.5044 52.5881 87.9558 52.2091C88.4071 51.8301 88.9357 51.5542 89.5047 51.4006C90.0737 51.247 90.6694 51.2195 91.2501 51.3199C92.1878 51.4825 93.0381 51.9708 93.6509 52.699C94.2638 53.4271 94.5999 54.3482 94.6001 55.2999V61.3099C94.6013 61.8441 94.4958 62.3732 94.2897 62.866C94.0837 63.3589 93.7812 63.8056 93.4001 64.1799C93.0261 64.5546 92.5819 64.8517 92.0928 65.0541C91.6037 65.2566 91.0794 65.3606 90.5501 65.3599C90.3101 65.3599 90.0701 65.3399 89.8401 65.2999ZM98.1101 65.3399C97.87 65.2994 97.6523 65.1742 97.4964 64.9872C97.3405 64.8001 97.2567 64.5634 97.2601 64.3199V46.2699C97.2601 45.9899 97.3601 45.7199 97.5601 45.5299C97.6781 45.4135 97.8224 45.3272 97.9808 45.2785C98.1392 45.2297 98.3071 45.2199 98.4701 45.2499C98.9701 45.3299 99.3401 45.7599 99.3401 46.2699V56.9499L104.12 51.5899C104.36 51.3299 104.72 51.2099 105.08 51.2699C105.262 51.3003 105.432 51.3787 105.573 51.4971C105.714 51.6155 105.82 51.7694 105.881 51.943C105.943 52.1165 105.956 52.3033 105.921 52.4839C105.885 52.6645 105.802 52.8323 105.68 52.9699L102.07 56.9999L105.8 63.8299C105.867 63.9451 105.911 64.0726 105.928 64.2048C105.945 64.337 105.936 64.4714 105.9 64.5999C105.861 64.7324 105.796 64.8556 105.709 64.9622C105.621 65.0688 105.513 65.1564 105.39 65.2199C105.178 65.3416 104.93 65.3842 104.69 65.3399C104.541 65.3147 104.399 65.2568 104.274 65.1703C104.15 65.0839 104.046 64.9711 103.97 64.8399L100.61 58.6599L99.3301 60.0699V64.3199C99.3301 64.5957 99.2205 64.8603 99.0255 65.0553C98.8305 65.2503 98.5659 65.3599 98.2901 65.3599C98.2201 65.3599 98.1601 65.3599 98.0901 65.3399H98.1101ZM143.92 65.3299C143.358 65.2357 142.824 65.0172 142.356 64.6902C141.889 64.3632 141.501 63.9361 141.22 63.4399C141.083 63.1968 141.047 62.9093 141.12 62.6399C141.2 62.3799 141.37 62.1599 141.6 62.0199C141.814 61.9032 142.061 61.8644 142.3 61.9099C142.6 61.9599 142.87 62.1399 143.02 62.4099C143.29 62.8699 143.72 63.1699 144.25 63.2599C144.523 63.3074 144.804 63.2925 145.07 63.2163C145.337 63.1401 145.583 63.0046 145.79 62.8199C146.19 62.4499 146.39 61.9199 146.34 61.3999C146.329 61.1334 146.255 60.8732 146.125 60.6404C145.995 60.4076 145.811 60.2088 145.59 60.0599L142.79 58.0699C142.334 57.7496 141.954 57.3326 141.677 56.8486C141.401 56.3646 141.234 55.8256 141.19 55.2699C141.154 54.7093 141.246 54.1478 141.459 53.628C141.672 53.1082 142.001 52.6438 142.42 52.2699C142.829 51.8896 143.318 51.6052 143.851 51.4374C144.383 51.2697 144.947 51.2227 145.5 51.2999C146.68 51.4999 147.64 52.1799 148.19 53.1399C148.323 53.3798 148.357 53.6617 148.286 53.9265C148.215 54.1912 148.045 54.4183 147.81 54.5599C147.598 54.6816 147.35 54.7242 147.11 54.6799C146.961 54.6547 146.819 54.5968 146.694 54.5103C146.57 54.4239 146.466 54.3111 146.39 54.1799C146.265 53.9678 146.094 53.786 145.89 53.6477C145.686 53.5094 145.454 53.4179 145.21 53.3799C144.961 53.3348 144.705 53.3484 144.462 53.4196C144.219 53.4907 143.996 53.6175 143.81 53.7899C143.629 53.9608 143.488 54.1694 143.396 54.401C143.305 54.6325 143.265 54.8814 143.28 55.1299C143.3 55.6199 143.58 56.0999 144 56.3799L146.8 58.3299C147.275 58.6627 147.668 59.0997 147.949 59.6074C148.23 60.1152 148.391 60.6804 148.42 61.2599C148.466 61.8367 148.378 62.4163 148.161 62.9528C147.944 63.4892 147.604 63.9676 147.17 64.3499C146.748 64.7424 146.243 65.0358 145.693 65.2088C145.143 65.3818 144.561 65.43 143.99 65.3499L143.91 65.3299H143.92ZM151.95 65.3599C151.71 65.3177 151.492 65.1924 151.335 65.006C151.178 64.8195 151.091 64.5838 151.09 64.3399V46.2899C151.089 46.153 151.115 46.0171 151.167 45.8903C151.218 45.7636 151.295 45.6484 151.392 45.5515C151.489 45.4547 151.604 45.3781 151.731 45.3264C151.857 45.2746 151.993 45.2486 152.13 45.2499L152.33 45.2599C152.83 45.3599 153.17 45.7699 153.17 46.2899V51.3899H155.14C155.671 51.3886 156.197 51.4922 156.688 51.6948C157.178 51.8973 157.624 52.1948 158 52.5703C158.375 52.9457 158.673 53.3916 158.875 53.8823C159.078 54.3731 159.181 54.899 159.18 55.4299V64.3299C159.181 64.4809 159.149 64.6302 159.085 64.7673C159.022 64.9045 158.929 65.026 158.814 65.1233C158.699 65.2206 158.563 65.2914 158.417 65.3305C158.271 65.3697 158.119 65.3763 157.97 65.3499C157.47 65.2599 157.11 64.8299 157.11 64.3199V55.4199C157.11 55.1617 157.059 54.906 156.96 54.6675C156.861 54.4291 156.716 54.2126 156.533 54.0304C156.349 53.8483 156.132 53.7041 155.893 53.6062C155.654 53.5083 155.398 53.4586 155.14 53.4599H153.17V64.3299C153.171 64.4819 153.139 64.6323 153.075 64.7702C153.011 64.9082 152.917 65.0303 152.801 65.1278C152.684 65.2253 152.547 65.2958 152.4 65.3342C152.253 65.3726 152.099 65.378 151.95 65.3499V65.3599ZM166.23 53.3699C165.947 53.3185 165.655 53.3301 165.377 53.404C165.099 53.4779 164.84 53.6123 164.62 53.7975C164.399 53.9827 164.222 54.2143 164.101 54.4757C163.98 54.7371 163.918 55.0219 163.92 55.3099V61.3199C163.919 61.5781 163.969 61.8341 164.066 62.073C164.164 62.312 164.308 62.5292 164.491 62.7123C164.673 62.8954 164.889 63.0406 165.128 63.1398C165.366 63.2389 165.622 63.2899 165.88 63.2899C166.4 63.2899 166.9 63.0899 167.27 62.7199C167.455 62.5371 167.602 62.319 167.702 62.0786C167.801 61.8381 167.852 61.5802 167.85 61.3199V55.2999C167.85 54.3399 167.17 53.5199 166.22 53.3599L166.23 53.3699ZM165.17 65.2899C164.235 65.125 163.388 64.6353 162.779 63.9072C162.17 63.1791 161.837 62.2593 161.84 61.3099V55.2999C161.84 54.7097 161.969 54.1267 162.218 53.5916C162.467 53.0565 162.83 52.5824 163.282 52.2023C163.733 51.8222 164.263 51.5454 164.832 51.3913C165.402 51.2371 165.999 51.2094 166.58 51.3099C167.52 51.4728 168.371 51.9626 168.984 52.6928C169.597 53.423 169.932 54.3465 169.93 55.2999V61.3099C169.931 61.8425 169.825 62.3698 169.619 62.861C169.413 63.3521 169.11 63.7971 168.73 64.1699C168.271 64.6305 167.708 64.973 167.088 65.1681C166.468 65.3631 165.81 65.4049 165.17 65.2899Z" fill="#333545"/>
<path fill-rule="evenodd" clip-rule="evenodd" d="M185.901 52.5398C185.935 52.4128 185.943 52.2802 185.926 52.1498C185.909 52.0194 185.866 51.8937 185.801 51.7798C185.725 51.6584 185.626 51.5534 185.509 51.471C185.392 51.3885 185.26 51.3303 185.121 51.2998C184.863 51.251 184.596 51.3026 184.375 51.4438C184.154 51.585 183.995 51.8054 183.931 52.0598C183.931 52.1098 182.811 56.6198 181.931 60.0498L181.911 60.1198L181.891 60.0498L179.891 52.0698C179.852 51.875 179.755 51.6967 179.612 51.559C179.469 51.4213 179.287 51.3308 179.091 51.2998C179.031 51.2881 178.971 51.2814 178.911 51.2798C178.451 51.2798 178.051 51.5998 177.921 52.0598C177.911 52.1098 176.791 56.6198 175.921 60.0498L175.901 60.1198L175.881 60.0498C175.031 56.6198 173.881 52.1098 173.881 52.0598C173.833 51.8684 173.732 51.6947 173.588 51.5599C173.444 51.425 173.265 51.3346 173.071 51.2998C172.904 51.2704 172.733 51.2828 172.572 51.3359C172.412 51.389 172.267 51.4812 172.151 51.6042C172.035 51.7272 171.951 51.8771 171.908 52.0404C171.864 52.2037 171.862 52.3753 171.901 52.5398L174.911 64.5698C174.968 64.7902 175.095 64.9859 175.274 65.1268C175.453 65.2677 175.673 65.3461 175.901 65.3498C176.391 65.3498 176.781 65.0298 176.881 64.5698L178.881 56.5798L178.911 56.5098L178.931 56.5798C179.811 60.0498 180.931 64.5798 180.931 64.5798C180.99 64.796 181.118 64.9874 181.294 65.1259C181.47 65.2645 181.686 65.3429 181.911 65.3498C182.141 65.357 182.367 65.2827 182.548 65.14C182.729 64.9974 182.854 64.7955 182.901 64.5698L185.901 52.5398Z" fill="#333545"/>
<defs>
<filter id="filter0_d_2013_76" x="0" y="0" width="250" height="176" filterUnits="userSpaceOnUse" color-interpolation-filters="sRGB">
<feFlood flood-opacity="0" result="BackgroundImageFix"/>
<feColorMatrix in="SourceAlpha" type="matrix" values="0 0 0 0 0 0 0 0 0 0 0 0 0 0 0 0 0 0 127 0" result="hardAlpha"/>
<feOffset dy="30"/>
<feGaussianBlur stdDeviation="20"/>
<feColorMatrix type="matrix" values="0 0 0 0 0.831373 0 0 0 0 0.85098 0 0 0 0 0.909804 0 0 0 0.2 0"/>
<feBlend mode="normal" in2="BackgroundImageFix" result="effect1_dropShadow_2013_76"/>
<feBlend mode="normal" in="SourceGraphic" in2="effect1_dropShadow_2013_76" result="shape"/>
</filter>
</defs>
</svg>
